# xmcd CD database file
#
# Track frame offsets:
#	150
#	11525
#	21737
#	44570
#
# Disc length: 897 seconds
#
# Revision: 2
# Processed by: cddbd v1.4PL0 Copyright (c) Steve Scherf et al.
# Submitted via: CDex 1.40Beta9
#
DISCID=30037f04
DTITLE=Katsuki Masako - Super Sailorneptune
DYEAR=1996
DGENRE=Anime
TTITLE0=Prologue
TTITLE1=Poem
TTITLE2=Senshi no Omoi (A Soldier's Memory)
TTITLE3=Senshi no Omoi (A Soldier's Memory) [Original Karaoke]
EXTD=YEAR: 1996
EXTT0=
EXTT1=
EXTT2=
EXTT3=
PLAYORDER=
